<svg width="34" height="34" viewBox="0 0 34 34" fill="none" xmlns="http://www.w3.org/2000/svg">
<path d="M4.24996 7.08333V6.375C3.85876 6.375 3.54163 6.69213 3.54163 7.08333H4.24996ZM29.75 7.08333H30.4583C30.4583 6.69213 30.1411 6.375 29.75 6.375V7.08333ZM4.24996 7.79167H29.75V6.375H4.24996V7.79167ZM29.0416 7.08333V24.0833H30.4583V7.08333H29.0416ZM26.9166 26.2083H7.08329V27.625H26.9166V26.2083ZM4.95829 24.0833V7.08333H3.54163V24.0833H4.95829ZM7.08329 26.2083C5.90968 26.2083 4.95829 25.2569 4.95829 24.0833H3.54163C3.54163 26.0393 5.12729 27.625 7.08329 27.625V26.2083ZM29.0416 24.0833C29.0416 25.2569 28.0902 26.2083 26.9166 26.2083V27.625C28.8726 27.625 30.4583 26.0393 30.4583 24.0833H29.0416Z" fill="#11559E"/>
<path d="M4.24996 6.375V7.08333H3.54163M4.24996 6.375C3.85876 6.375 3.54163 6.69213 3.54163 7.08333M4.24996 6.375H29.75M4.24996 6.375V7.79167H29.75V6.375M3.54163 7.08333H4.95829V24.0833M3.54163 7.08333V24.0833M30.4583 7.08333H29.75V6.375M30.4583 7.08333C30.4583 6.69213 30.1411 6.375 29.75 6.375M30.4583 7.08333V24.0833M30.4583 7.08333H29.0416V24.0833M29.0416 24.0833H30.4583M29.0416 24.0833C29.0416 25.2569 28.0902 26.2083 26.9166 26.2083M30.4583 24.0833C30.4583 26.0393 28.8726 27.625 26.9166 27.625M26.9166 26.2083H7.08329M26.9166 26.2083V27.625M7.08329 26.2083V27.625M7.08329 26.2083C5.90968 26.2083 4.95829 25.2569 4.95829 24.0833M7.08329 27.625H26.9166M7.08329 27.625C5.12729 27.625 3.54163 26.0393 3.54163 24.0833M4.95829 24.0833H3.54163" stroke="#11559E"/>
<path d="M4.25 7.0835L17 19.8335L29.75 7.0835" stroke="#11559E" stroke-linecap="round" stroke-linejoin="round"/>
</svg>
