<svg width="34" height="34" viewBox="0 0 34 34" fill="none" xmlns="http://www.w3.org/2000/svg">
<path d="M31.1242 25.9677C31.1242 26.4777 31.0109 27.0018 30.77 27.5118C30.5292 28.0218 30.2175 28.5035 29.8067 28.9568C29.1125 29.7218 28.3475 30.2743 27.4834 30.6285C26.6334 30.9827 25.7125 31.1668 24.7209 31.1668C23.2759 31.1668 21.7317 30.8268 20.1025 30.1327C18.4734 29.4385 16.8442 28.5035 15.2292 27.3277C13.6 26.1377 12.0559 24.8202 10.5825 23.361C9.12337 21.8877 7.80587 20.3435 6.63004 18.7285C5.46837 17.1135 4.53337 15.4985 3.85337 13.8977C3.17337 12.2827 2.83337 10.7385 2.83337 9.26516C2.83337 8.30183 3.00337 7.381 3.34337 6.531C3.68337 5.66683 4.22171 4.8735 4.97254 4.16516C5.87921 3.27266 6.87087 2.8335 7.91921 2.8335C8.31587 2.8335 8.71254 2.9185 9.06671 3.0885C9.43504 3.2585 9.76087 3.5135 10.0159 3.88183L13.3025 8.51433C13.5575 8.8685 13.7417 9.19433 13.8692 9.506C13.9967 9.8035 14.0675 10.101 14.0675 10.3702C14.0675 10.7102 13.9684 11.0502 13.77 11.376C13.5859 11.7018 13.3167 12.0418 12.9767 12.3818L11.9 13.501C11.7442 13.6568 11.6734 13.841 11.6734 14.0677C11.6734 14.181 11.6875 14.2802 11.7159 14.3935C11.7584 14.5068 11.8009 14.5918 11.8292 14.6768C12.0842 15.1443 12.5234 15.7535 13.1467 16.4902C13.7842 17.2268 14.4642 17.9777 15.2009 18.7285C15.9659 19.4793 16.7025 20.1735 17.4534 20.811C18.19 21.4343 18.7992 21.8593 19.2809 22.1143C19.3517 22.1427 19.4367 22.1852 19.5359 22.2277C19.6492 22.2702 19.7625 22.2843 19.89 22.2843C20.1309 22.2843 20.315 22.1993 20.4709 22.0435L21.5475 20.981C21.9017 20.6268 22.2417 20.3577 22.5675 20.1877C22.8934 19.9893 23.2192 19.8902 23.5734 19.8902C23.8425 19.8902 24.1259 19.9468 24.4375 20.0743C24.7492 20.2018 25.075 20.386 25.4292 20.6268L30.1184 23.956C30.4867 24.211 30.7417 24.5085 30.8975 24.8627C31.0392 25.2168 31.1242 25.571 31.1242 25.9677Z" stroke="#11559E" stroke-width="1.5" stroke-miterlimit="10"/>
</svg>
