<svg width="44" height="44" viewBox="0 0 44 44" fill="none" xmlns="http://www.w3.org/2000/svg">
<path fill-rule="evenodd" clip-rule="evenodd" d="M29.375 6H10.625C7.51842 6 5 8.51842 5 11.625V30.375C5 33.4815 7.51842 36 10.625 36H29.375C32.4815 36 35 33.4815 35 30.375V11.625C35 8.51842 32.4815 6 29.375 6ZM28.6132 22.1565H25.8065V32.546H21.1172V22.1565H19.2973V18.6553H21.1172V16.425C21.1172 13.504 22.3328 11.7671 25.775 11.7671H29.2645V15.2526H27.2355C25.8935 15.2526 25.8065 15.7539 25.8065 16.6855L25.8027 18.6513H28.9922L28.6092 22.1527L28.6132 22.1565Z" fill="white"/>
</svg>
