<svg width="116" height="43" viewBox="0 0 116 43" fill="none" xmlns="http://www.w3.org/2000/svg">
<path d="M15.0057 5.54545V23H12.5852L3.71307 10.1989H3.55114V23H0.917614V5.54545H3.35511L12.2358 18.3636H12.3977V5.54545H15.0057ZM24.157 23.2642C22.9297 23.2642 21.8587 22.983 20.9439 22.4205C20.0291 21.858 19.3189 21.071 18.8132 20.0597C18.3075 19.0483 18.0547 17.8665 18.0547 16.5142C18.0547 15.1562 18.3075 13.9687 18.8132 12.9517C19.3189 11.9347 20.0291 11.1449 20.9439 10.5824C21.8587 10.0199 22.9297 9.73864 24.157 9.73864C25.3842 9.73864 26.4553 10.0199 27.37 10.5824C28.2848 11.1449 28.995 11.9347 29.5007 12.9517C30.0064 13.9687 30.2592 15.1562 30.2592 16.5142C30.2592 17.8665 30.0064 19.0483 29.5007 20.0597C28.995 21.071 28.2848 21.858 27.37 22.4205C26.4553 22.983 25.3842 23.2642 24.157 23.2642ZM24.1655 21.125C24.9609 21.125 25.62 20.9148 26.1428 20.4943C26.6655 20.0739 27.0518 19.5142 27.3018 18.8153C27.5575 18.1165 27.6854 17.3466 27.6854 16.5057C27.6854 15.6705 27.5575 14.9034 27.3018 14.2045C27.0518 13.5 26.6655 12.9347 26.1428 12.5085C25.62 12.0824 24.9609 11.8693 24.1655 11.8693C23.3643 11.8693 22.6996 12.0824 22.1712 12.5085C21.6484 12.9347 21.2592 13.5 21.0036 14.2045C20.7536 14.9034 20.6286 15.6705 20.6286 16.5057C20.6286 17.3466 20.7536 18.1165 21.0036 18.8153C21.2592 19.5142 21.6484 20.0739 22.1712 20.4943C22.6996 20.9148 23.3643 21.125 24.1655 21.125ZM43.8572 9.90909L39.1101 23H36.3828L31.6271 9.90909H34.3629L37.6783 19.983H37.8146L41.1214 9.90909H43.8572ZM49.6868 23.2898C48.8572 23.2898 48.1072 23.1364 47.4368 22.8295C46.7663 22.517 46.2351 22.0653 45.843 21.4744C45.4567 20.8835 45.2635 20.1591 45.2635 19.3011C45.2635 18.5625 45.4055 17.9545 45.6896 17.4773C45.9737 17 46.3572 16.6222 46.8402 16.3438C47.3232 16.0653 47.8629 15.8551 48.4595 15.7131C49.0561 15.571 49.6641 15.4631 50.2834 15.3892C51.0675 15.2983 51.7038 15.2244 52.1925 15.1676C52.6811 15.1051 53.0362 15.0057 53.2578 14.8693C53.4794 14.733 53.5902 14.5114 53.5902 14.2045V14.1449C53.5902 13.4006 53.38 12.8239 52.9595 12.4148C52.5447 12.0057 51.9254 11.8011 51.1016 11.8011C50.2436 11.8011 49.5675 11.9915 49.0732 12.3722C48.5845 12.7472 48.2464 13.1648 48.0589 13.625L45.6641 13.0795C45.9482 12.2841 46.3629 11.642 46.9084 11.1534C47.4595 10.6591 48.093 10.3011 48.8089 10.0795C49.5249 9.85227 50.2777 9.73864 51.0675 9.73864C51.5902 9.73864 52.1442 9.80114 52.7294 9.92614C53.3203 10.0455 53.8714 10.267 54.3828 10.5909C54.8999 10.9148 55.3232 11.3778 55.6527 11.9801C55.9822 12.5767 56.147 13.3523 56.147 14.3068V23H53.6584V21.2102H53.5561C53.3913 21.5398 53.1442 21.8636 52.8146 22.1818C52.4851 22.5 52.0618 22.7642 51.5447 22.9744C51.0277 23.1847 50.4084 23.2898 49.6868 23.2898ZM50.2408 21.2443C50.9453 21.2443 51.5476 21.1051 52.0476 20.8267C52.5533 20.5483 52.9368 20.1847 53.1982 19.7358C53.4652 19.2812 53.5987 18.7955 53.5987 18.2784V16.5909C53.5078 16.6818 53.3317 16.767 53.0703 16.8466C52.8146 16.9205 52.522 16.9858 52.1925 17.0426C51.8629 17.0937 51.5419 17.142 51.2294 17.1875C50.9169 17.2273 50.6555 17.2614 50.4453 17.2898C49.951 17.3523 49.4993 17.4574 49.0902 17.6051C48.6868 17.7528 48.3629 17.9659 48.1186 18.2443C47.88 18.517 47.7607 18.8807 47.7607 19.3352C47.7607 19.9659 47.9936 20.4432 48.4595 20.767C48.9254 21.0852 49.5192 21.2443 50.2408 21.2443ZM61.2202 23H58.4247L64.706 5.54545H67.7486L74.0298 23H71.2344L66.2997 8.71591H66.1634L61.2202 23ZM61.6889 16.1648H70.7571V18.3807H61.6889V16.1648ZM78.8942 5.54545V23H76.3459V5.54545H78.8942ZM82.3224 23V9.90909H84.8707V23H82.3224ZM83.6094 7.8892C83.1662 7.8892 82.7855 7.74148 82.4673 7.44602C82.1548 7.14489 81.9986 6.78693 81.9986 6.37216C81.9986 5.9517 82.1548 5.59375 82.4673 5.29829C82.7855 4.99716 83.1662 4.84659 83.6094 4.84659C84.0526 4.84659 84.4304 4.99716 84.7429 5.29829C85.0611 5.59375 85.2202 5.9517 85.2202 6.37216C85.2202 6.78693 85.0611 7.14489 84.7429 7.44602C84.4304 7.74148 84.0526 7.8892 83.6094 7.8892ZM93.7876 28.1818C92.7479 28.1818 91.853 28.0455 91.103 27.7727C90.3587 27.5 89.7507 27.1392 89.2791 26.6903C88.8075 26.2415 88.4553 25.75 88.2223 25.2159L90.4126 24.3125C90.5661 24.5625 90.7706 24.8267 91.0263 25.1051C91.2876 25.3892 91.6399 25.6307 92.0831 25.8295C92.532 26.0284 93.1087 26.1278 93.8132 26.1278C94.7791 26.1278 95.5774 25.892 96.2081 25.4205C96.8388 24.9545 97.1541 24.2102 97.1541 23.1875V20.6136H96.9922C96.8388 20.892 96.6172 21.2017 96.3274 21.5426C96.0433 21.8835 95.6513 22.179 95.1513 22.429C94.6513 22.679 94.0007 22.804 93.1996 22.804C92.1655 22.804 91.2337 22.5625 90.4041 22.0795C89.5803 21.5909 88.9268 20.8722 88.4439 19.9233C87.9666 18.9687 87.728 17.7955 87.728 16.4034C87.728 15.0114 87.9638 13.8182 88.4354 12.8239C88.9126 11.8295 89.5661 11.0682 90.3956 10.5398C91.2251 10.0057 92.1655 9.73864 93.2166 9.73864C94.0291 9.73864 94.6854 9.875 95.1854 10.1477C95.6854 10.4148 96.0746 10.7273 96.353 11.0852C96.6371 11.4432 96.8558 11.7585 97.0092 12.0312H97.1967V9.90909H99.6939V23.2898C99.6939 24.4148 99.4325 25.3381 98.9098 26.0597C98.3871 26.7813 97.6797 27.3153 96.7876 27.6619C95.9013 28.0085 94.9013 28.1818 93.7876 28.1818ZM93.7621 20.6903C94.495 20.6903 95.1143 20.5199 95.62 20.179C96.1314 19.8324 96.5178 19.3381 96.7791 18.696C97.0462 18.0483 97.1797 17.2727 97.1797 16.3693C97.1797 15.4886 97.049 14.7131 96.7876 14.0426C96.5263 13.3722 96.1428 12.8494 95.6371 12.4744C95.1314 12.0937 94.5064 11.9034 93.7621 11.9034C92.995 11.9034 92.3558 12.1023 91.8445 12.5C91.3331 12.892 90.9467 13.4261 90.6854 14.1023C90.4297 14.7784 90.3018 15.5341 90.3018 16.3693C90.3018 17.2273 90.4325 17.9801 90.6939 18.6278C90.9553 19.2756 91.3416 19.7812 91.853 20.1449C92.37 20.5085 93.0064 20.6903 93.7621 20.6903ZM105.66 15.2273V23H103.112V9.90909H105.558V12.0398H105.719C106.021 11.3466 106.492 10.7898 107.134 10.3693C107.782 9.94886 108.597 9.73864 109.58 9.73864C110.472 9.73864 111.254 9.92614 111.924 10.3011C112.594 10.6705 113.114 11.2216 113.484 11.9545C113.853 12.6875 114.038 13.5937 114.038 14.6733V23H111.489V14.9801C111.489 14.0312 111.242 13.2898 110.748 12.7557C110.254 12.2159 109.575 11.946 108.711 11.946C108.12 11.946 107.594 12.0739 107.134 12.3295C106.68 12.5852 106.319 12.9602 106.052 13.4545C105.79 13.9432 105.66 14.5341 105.66 15.2273Z" fill="white"/>
<path d="M45 31.9674C50.0608 44.6863 63.2081 45.0673 68.9608 34.4985C69.8248 32.9111 70.522 31.0767 71 29" stroke="white" stroke-linecap="round" stroke-linejoin="round"/>
<path d="M45 31.8763C52.6796 40.0492 68.1688 37.9706 71 29" stroke="white" stroke-linecap="round" stroke-linejoin="round"/>
</svg>
