<svg width="78" height="35" viewBox="0 0 78 35" fill="none" xmlns="http://www.w3.org/2000/svg">
<path d="M10.6705 3.36364V15H9.05682L3.14205 6.46591H3.03409V15H1.27841V3.36364H2.90341L8.82386 11.9091H8.93182V3.36364H10.6705ZM16.7713 15.1761C15.9531 15.1761 15.2391 14.9886 14.6293 14.6136C14.0194 14.2386 13.5459 13.714 13.2088 13.0398C12.8717 12.3655 12.7031 11.5777 12.7031 10.6761C12.7031 9.77083 12.8717 8.97917 13.2088 8.30114C13.5459 7.62311 14.0194 7.09659 14.6293 6.72159C15.2391 6.34659 15.9531 6.15909 16.7713 6.15909C17.5895 6.15909 18.3035 6.34659 18.9134 6.72159C19.5232 7.09659 19.9967 7.62311 20.3338 8.30114C20.6709 8.97917 20.8395 9.77083 20.8395 10.6761C20.8395 11.5777 20.6709 12.3655 20.3338 13.0398C19.9967 13.714 19.5232 14.2386 18.9134 14.6136C18.3035 14.9886 17.5895 15.1761 16.7713 15.1761ZM16.777 13.75C17.3073 13.75 17.7467 13.6098 18.0952 13.3295C18.4437 13.0492 18.7012 12.6761 18.8679 12.2102C19.0384 11.7443 19.1236 11.2311 19.1236 10.6705C19.1236 10.1136 19.0384 9.60227 18.8679 9.13636C18.7012 8.66667 18.4437 8.28977 18.0952 8.00568C17.7467 7.72159 17.3073 7.57955 16.777 7.57955C16.2429 7.57955 15.7997 7.72159 15.4474 8.00568C15.099 8.28977 14.8395 8.66667 14.669 9.13636C14.5024 9.60227 14.419 10.1136 14.419 10.6705C14.419 11.2311 14.5024 11.7443 14.669 12.2102C14.8395 12.6761 15.099 13.0492 15.4474 13.3295C15.7997 13.6098 16.2429 13.75 16.777 13.75ZM29.9048 6.27273L26.7401 15H24.9219L21.7514 6.27273H23.5753L25.7855 12.9886H25.8764L28.081 6.27273H29.9048ZM33.7912 15.1932C33.2382 15.1932 32.7382 15.0909 32.2912 14.8864C31.8442 14.678 31.4901 14.3769 31.2287 13.983C30.9711 13.589 30.8423 13.1061 30.8423 12.5341C30.8423 12.0417 30.937 11.6364 31.1264 11.3182C31.3158 11 31.5715 10.7481 31.8935 10.5625C32.2154 10.3769 32.5753 10.2367 32.973 10.142C33.3707 10.0473 33.776 9.97538 34.1889 9.92614C34.7116 9.86553 35.1359 9.81629 35.4616 9.77841C35.7874 9.73674 36.0241 9.67045 36.1719 9.57955C36.3196 9.48864 36.3935 9.34091 36.3935 9.13636V9.09659C36.3935 8.60038 36.2533 8.21591 35.973 7.94318C35.6965 7.67045 35.2836 7.53409 34.7344 7.53409C34.1624 7.53409 33.7116 7.66098 33.3821 7.91477C33.0563 8.16477 32.831 8.44318 32.706 8.75L31.1094 8.38636C31.2988 7.85606 31.5753 7.42803 31.9389 7.10227C32.3063 6.77273 32.7287 6.53409 33.206 6.38636C33.6832 6.23485 34.1851 6.15909 34.7116 6.15909C35.0601 6.15909 35.4295 6.20076 35.8196 6.28409C36.2135 6.36364 36.581 6.51136 36.9219 6.72727C37.2666 6.94318 37.5488 7.25189 37.7685 7.65341C37.9882 8.05114 38.098 8.56818 38.098 9.20455V15H36.4389V13.8068H36.3707C36.2609 14.0265 36.0961 14.2424 35.8764 14.4545C35.6567 14.6667 35.3745 14.8428 35.0298 14.983C34.6851 15.1231 34.2723 15.1932 33.7912 15.1932ZM34.1605 13.8295C34.6302 13.8295 35.0317 13.7367 35.3651 13.5511C35.7022 13.3655 35.9579 13.1231 36.1321 12.8239C36.3101 12.5208 36.3991 12.197 36.3991 11.8523V10.7273C36.3385 10.7879 36.2211 10.8447 36.0469 10.8977C35.8764 10.947 35.6813 10.9905 35.4616 11.0284C35.242 11.0625 35.0279 11.0947 34.8196 11.125C34.6113 11.1515 34.437 11.1742 34.2969 11.1932C33.9673 11.2348 33.6662 11.3049 33.3935 11.4034C33.1245 11.5019 32.9086 11.6439 32.7457 11.8295C32.5866 12.0114 32.5071 12.2538 32.5071 12.5568C32.5071 12.9773 32.6624 13.2955 32.973 13.5114C33.2836 13.7235 33.6795 13.8295 34.1605 13.8295ZM41.4801 15H39.6165L43.804 3.36364H45.8324L50.0199 15H48.1562L44.8665 5.47727H44.7756L41.4801 15ZM41.7926 10.4432H47.8381V11.9205H41.7926V10.4432ZM53.2628 3.36364V15H51.5639V3.36364H53.2628ZM55.5483 15V6.27273H57.2472V15H55.5483ZM56.4062 4.92614C56.1108 4.92614 55.857 4.82765 55.6449 4.63068C55.4366 4.42992 55.3324 4.19129 55.3324 3.91477C55.3324 3.63447 55.4366 3.39583 55.6449 3.19886C55.857 2.99811 56.1108 2.89773 56.4062 2.89773C56.7017 2.89773 56.9536 2.99811 57.1619 3.19886C57.3741 3.39583 57.4801 3.63447 57.4801 3.91477C57.4801 4.19129 57.3741 4.42992 57.1619 4.63068C56.9536 4.82765 56.7017 4.92614 56.4062 4.92614ZM63.1918 18.4545C62.4986 18.4545 61.902 18.3636 61.402 18.1818C60.9058 18 60.5005 17.7595 60.1861 17.4602C59.8717 17.161 59.6368 16.8333 59.4815 16.4773L60.9418 15.875C61.044 16.0417 61.1804 16.2178 61.3509 16.4034C61.5251 16.5928 61.7599 16.7538 62.0554 16.8864C62.3546 17.0189 62.7391 17.0852 63.2088 17.0852C63.8527 17.0852 64.3849 16.928 64.8054 16.6136C65.2259 16.303 65.4361 15.8068 65.4361 15.125V13.4091H65.3281C65.2259 13.5947 65.0781 13.8011 64.8849 14.0284C64.6955 14.2557 64.4342 14.4527 64.1009 14.6193C63.7675 14.786 63.3338 14.8693 62.7997 14.8693C62.1103 14.8693 61.4891 14.7083 60.9361 14.3864C60.3868 14.0606 59.9512 13.5814 59.6293 12.9489C59.3111 12.3125 59.152 11.5303 59.152 10.6023C59.152 9.67424 59.3092 8.87879 59.6236 8.21591C59.9418 7.55303 60.3774 7.04545 60.9304 6.69318C61.4834 6.33712 62.1103 6.15909 62.8111 6.15909C63.3527 6.15909 63.7902 6.25 64.1236 6.43182C64.4569 6.60985 64.7164 6.81818 64.902 7.05682C65.0914 7.29545 65.2372 7.50568 65.3395 7.6875H65.4645V6.27273H67.1293V15.1932C67.1293 15.9432 66.955 16.5587 66.6065 17.0398C66.258 17.5208 65.7865 17.8769 65.1918 18.108C64.6009 18.339 63.9342 18.4545 63.1918 18.4545ZM63.1747 13.4602C63.6634 13.4602 64.0762 13.3466 64.4134 13.1193C64.7543 12.8883 65.0118 12.5587 65.1861 12.1307C65.3641 11.6989 65.4531 11.1818 65.4531 10.5795C65.4531 9.99242 65.366 9.47538 65.1918 9.02841C65.0175 8.58144 64.7618 8.23295 64.4247 7.98295C64.0876 7.72917 63.6709 7.60227 63.1747 7.60227C62.6634 7.60227 62.2372 7.73485 61.8963 8C61.5554 8.26136 61.2978 8.61742 61.1236 9.06818C60.9531 9.51894 60.8679 10.0227 60.8679 10.5795C60.8679 11.1515 60.955 11.6534 61.1293 12.0852C61.3035 12.517 61.5611 12.8542 61.902 13.0966C62.2467 13.339 62.6709 13.4602 63.1747 13.4602ZM71.1065 9.81818V15H69.4077V6.27273H71.0384V7.69318H71.1463C71.3471 7.23106 71.6615 6.85985 72.0895 6.57955C72.5213 6.29924 73.0649 6.15909 73.7202 6.15909C74.3149 6.15909 74.8357 6.28409 75.2827 6.53409C75.7296 6.7803 76.0762 7.14773 76.3224 7.63636C76.5687 8.125 76.6918 8.72917 76.6918 9.44886V15H74.9929V9.65341C74.9929 9.02083 74.8281 8.52652 74.4986 8.17045C74.169 7.81061 73.7164 7.63068 73.1406 7.63068C72.7467 7.63068 72.3963 7.71591 72.0895 7.88636C71.7865 8.05682 71.5459 8.30682 71.3679 8.63636C71.1937 8.96212 71.1065 9.35606 71.1065 9.81818Z" fill="white"/>
<path d="M26 21.9674C31.0608 34.6863 44.2081 35.0673 49.9608 24.4985C50.8248 22.9111 51.522 21.0767 52 19" stroke="white" stroke-linecap="round" stroke-linejoin="round"/>
<path d="M26 21.8763C33.6796 30.0492 49.1688 27.9706 52 19" stroke="white" stroke-linecap="round" stroke-linejoin="round"/>
</svg>
