<svg width="40" height="40" viewBox="0 0 40 40" fill="none" xmlns="http://www.w3.org/2000/svg">
<path d="M5 30V20C5 16.0218 6.58035 12.2064 9.3934 9.3934C12.2064 6.58035 16.0218 5 20 5C23.9782 5 27.7936 6.58035 30.6066 9.3934C33.4196 12.2064 35 16.0218 35 20V30" stroke="#203182" stroke-width="2" stroke-linecap="round" stroke-linejoin="round"/>
<path d="M35 31.6668C35 32.5509 34.6488 33.3987 34.0237 34.0239C33.3986 34.649 32.5507 35.0002 31.6667 35.0002H30C29.1159 35.0002 28.2681 34.649 27.643 34.0239C27.0179 33.3987 26.6667 32.5509 26.6667 31.6668V26.6668C26.6667 25.7828 27.0179 24.9349 27.643 24.3098C28.2681 23.6847 29.1159 23.3335 30 23.3335H35V31.6668ZM5 31.6668C5 32.5509 5.35119 33.3987 5.97631 34.0239C6.60143 34.649 7.44928 35.0002 8.33333 35.0002H10C10.8841 35.0002 11.7319 34.649 12.357 34.0239C12.9821 33.3987 13.3333 32.5509 13.3333 31.6668V26.6668C13.3333 25.7828 12.9821 24.9349 12.357 24.3098C11.7319 23.6847 10.8841 23.3335 10 23.3335H5V31.6668Z" stroke="#203182" stroke-width="2" stroke-linecap="round" stroke-linejoin="round"/>
</svg>
