<svg width="44" height="44" viewBox="0 0 44 44" fill="none" xmlns="http://www.w3.org/2000/svg">
<path d="M29.0833 7.8335H14.9166C11.0046 7.8335 7.83331 11.0048 7.83331 14.9168V29.0835C7.83331 32.9955 11.0046 36.1668 14.9166 36.1668H29.0833C32.9953 36.1668 36.1666 32.9955 36.1666 29.0835V14.9168C36.1666 11.0048 32.9953 7.8335 29.0833 7.8335Z" stroke="white" stroke-width="2" stroke-linecap="round" stroke-linejoin="round"/>
<path d="M27.6666 21.1074C27.8415 22.2865 27.6401 23.4906 27.0911 24.5485C26.5422 25.6065 25.6736 26.4644 24.6089 27.0003C23.5443 27.5362 22.3378 27.7227 21.161 27.5333C19.9842 27.344 18.8971 26.7884 18.0543 25.9456C17.2115 25.1028 16.6559 24.0157 16.4666 22.8389C16.2772 21.6621 16.4637 20.4556 16.9996 19.391C17.5355 18.3263 18.3934 17.4577 19.4514 16.9088C20.5093 16.3598 21.7135 16.1584 22.8925 16.3333C24.0951 16.5116 25.2085 17.072 26.0682 17.9317C26.9279 18.7914 27.4883 19.9048 27.6666 21.1074Z" stroke="white" stroke-width="2" stroke-linecap="round" stroke-linejoin="round"/>
<path d="M29.7917 14.2085H29.8067" stroke="white" stroke-width="2" stroke-linecap="round" stroke-linejoin="round"/>
</svg>
