<svg width="98" height="38" viewBox="0 0 98 38" fill="none" xmlns="http://www.w3.org/2000/svg">
<path d="M13.3381 4.45455V19H11.321L3.92756 8.33239H3.79261V19H1.59801V4.45455H3.62926L11.0298 15.1364H11.1648V4.45455H13.3381ZM20.9641 19.2202C19.9414 19.2202 19.0489 18.9858 18.2866 18.517C17.5243 18.0483 16.9324 17.3925 16.511 16.5497C16.0896 15.7069 15.8789 14.7221 15.8789 13.5952C15.8789 12.4635 16.0896 11.474 16.511 10.6264C16.9324 9.77888 17.5243 9.12074 18.2866 8.65199C19.0489 8.18324 19.9414 7.94886 20.9641 7.94886C21.9869 7.94886 22.8794 8.18324 23.6417 8.65199C24.404 9.12074 24.9959 9.77888 25.4173 10.6264C25.8387 11.474 26.0494 12.4635 26.0494 13.5952C26.0494 14.7221 25.8387 15.7069 25.4173 16.5497C24.9959 17.3925 24.404 18.0483 23.6417 18.517C22.8794 18.9858 21.9869 19.2202 20.9641 19.2202ZM20.9712 17.4375C21.6341 17.4375 22.1834 17.2623 22.619 16.9119C23.0546 16.5616 23.3765 16.0952 23.5849 15.5128C23.7979 14.9304 23.9045 14.2888 23.9045 13.5881C23.9045 12.892 23.7979 12.2528 23.5849 11.6705C23.3765 11.0833 23.0546 10.6122 22.619 10.2571C22.1834 9.90199 21.6341 9.72443 20.9712 9.72443C20.3036 9.72443 19.7496 9.90199 19.3093 10.2571C18.8737 10.6122 18.5494 11.0833 18.3363 11.6705C18.128 12.2528 18.0238 12.892 18.0238 13.5881C18.0238 14.2888 18.128 14.9304 18.3363 15.5128C18.5494 16.0952 18.8737 16.5616 19.3093 16.9119C19.7496 17.2623 20.3036 17.4375 20.9712 17.4375ZM37.381 8.09091L33.4251 19H31.1523L27.1893 8.09091H29.4691L32.2319 16.4858H32.3455L35.1012 8.09091H37.381ZM42.239 19.2415C41.5477 19.2415 40.9227 19.1136 40.364 18.858C39.8053 18.5975 39.3626 18.2211 39.0359 17.7287C38.7139 17.2363 38.5529 16.6326 38.5529 15.9176C38.5529 15.3021 38.6713 14.7955 38.908 14.3977C39.1448 14 39.4644 13.6851 39.8668 13.4531C40.2693 13.2211 40.7191 13.0459 41.2163 12.9276C41.7134 12.8092 42.2201 12.7192 42.7362 12.6577C43.3896 12.5819 43.9199 12.5204 44.3271 12.473C44.7343 12.4209 45.0302 12.3381 45.2148 12.2244C45.3995 12.1108 45.4918 11.9261 45.4918 11.6705V11.6207C45.4918 11.0005 45.3166 10.5199 44.9663 10.179C44.6206 9.83807 44.1045 9.66761 43.418 9.66761C42.703 9.66761 42.1396 9.82623 41.7276 10.1435C41.3204 10.456 41.0387 10.804 40.8825 11.1875L38.8867 10.733C39.1235 10.0701 39.4691 9.53504 39.9237 9.12784C40.3829 8.71591 40.9109 8.41761 41.5075 8.23295C42.104 8.04356 42.7314 7.94886 43.3896 7.94886C43.8252 7.94886 44.2868 8.00095 44.7745 8.10511C45.2669 8.20455 45.7262 8.3892 46.1523 8.65909C46.5832 8.92898 46.936 9.31487 47.2106 9.81676C47.4852 10.3139 47.6225 10.9602 47.6225 11.7557V19H45.5487V17.5085H45.4634C45.3261 17.7831 45.1201 18.053 44.8455 18.3182C44.5709 18.5833 44.2182 18.8035 43.7873 18.9787C43.3564 19.1539 42.8403 19.2415 42.239 19.2415ZM42.7006 17.5369C43.2878 17.5369 43.7897 17.4209 44.2063 17.1889C44.6277 16.9569 44.9473 16.6539 45.1651 16.2798C45.3877 15.901 45.4989 15.4962 45.4989 15.0653V13.6591C45.4232 13.7348 45.2764 13.8059 45.0586 13.8722C44.8455 13.9337 44.6017 13.9882 44.3271 14.0355C44.0524 14.0781 43.7849 14.1184 43.5245 14.1562C43.2641 14.1894 43.0463 14.2178 42.8711 14.2415C42.4592 14.2936 42.0827 14.3812 41.7418 14.5043C41.4057 14.6274 41.1358 14.8049 40.9322 15.0369C40.7333 15.2642 40.6339 15.5672 40.6339 15.946C40.6339 16.4716 40.828 16.8693 41.2163 17.1392C41.6045 17.4044 42.0993 17.5369 42.7006 17.5369Z" fill="#333333"/>
<path d="M51.8501 19H49.5206L54.755 4.45455H57.2905L62.5249 19H60.1953L56.0831 7.09659H55.9695L51.8501 19ZM52.2408 13.304H59.7976V15.1506H52.2408V13.304ZM66.5785 4.45455V19H64.4549V4.45455H66.5785ZM69.4354 19V8.09091H71.5589V19H69.4354ZM70.5078 6.40767C70.1385 6.40767 69.8213 6.28456 69.5561 6.03835C69.2957 5.7874 69.1655 5.48911 69.1655 5.14347C69.1655 4.79309 69.2957 4.49479 69.5561 4.24858C69.8213 3.99763 70.1385 3.87216 70.5078 3.87216C70.8771 3.87216 71.192 3.99763 71.4524 4.24858C71.7176 4.49479 71.8501 4.79309 71.8501 5.14347C71.8501 5.48911 71.7176 5.7874 71.4524 6.03835C71.192 6.28456 70.8771 6.40767 70.5078 6.40767ZM78.9897 23.3182C78.1232 23.3182 77.3775 23.2045 76.7525 22.9773C76.1322 22.75 75.6256 22.4493 75.2326 22.0753C74.8396 21.7012 74.546 21.2917 74.3519 20.8466L76.1772 20.0938C76.305 20.3021 76.4755 20.5223 76.6886 20.7543C76.9064 20.991 77.1999 21.1922 77.5692 21.358C77.9433 21.5237 78.4239 21.6065 79.011 21.6065C79.8159 21.6065 80.4812 21.41 81.0067 21.017C81.5323 20.6288 81.7951 20.0085 81.7951 19.1562V17.0114H81.6602C81.5323 17.2434 81.3477 17.5014 81.1062 17.7855C80.8694 18.0696 80.5427 18.3158 80.1261 18.5241C79.7094 18.7325 79.1673 18.8366 78.4996 18.8366C77.6379 18.8366 76.8614 18.6354 76.1701 18.233C75.4835 17.8258 74.939 17.2268 74.5366 16.4361C74.1388 15.6406 73.94 14.6629 73.94 13.5028C73.94 12.3428 74.1365 11.3485 74.5295 10.5199C74.9272 9.69129 75.4717 9.05682 76.163 8.61648C76.8543 8.1714 77.6379 7.94886 78.5138 7.94886C79.1909 7.94886 79.7378 8.0625 80.1545 8.28977C80.5711 8.51231 80.8955 8.77273 81.1275 9.07102C81.3642 9.36932 81.5465 9.6321 81.6744 9.85938H81.8306V8.09091H83.9116V19.2415C83.9116 20.179 83.6938 20.9484 83.2582 21.5497C82.8226 22.151 82.2331 22.5961 81.4897 22.8849C80.7511 23.1738 79.9177 23.3182 78.9897 23.3182ZM78.9684 17.0753C79.5792 17.0753 80.0953 16.9332 80.5167 16.6491C80.9428 16.3603 81.2648 15.9484 81.4826 15.4134C81.7051 14.8736 81.8164 14.2273 81.8164 13.4744C81.8164 12.7405 81.7075 12.0942 81.4897 11.5355C81.2719 10.9768 80.9523 10.5412 80.5309 10.2287C80.1095 9.91146 79.5887 9.75284 78.9684 9.75284C78.3292 9.75284 77.7965 9.91856 77.3704 10.25C76.9442 10.5767 76.6223 11.0218 76.4045 11.5852C76.1914 12.1487 76.0849 12.7784 76.0849 13.4744C76.0849 14.1894 76.1938 14.8168 76.4116 15.3565C76.6294 15.8963 76.9513 16.3177 77.3775 16.6207C77.8084 16.9238 78.3387 17.0753 78.9684 17.0753ZM88.8832 12.5227V19H86.7596V8.09091H88.7979V9.86648H88.9329C89.1838 9.28883 89.5768 8.82481 90.1119 8.47443C90.6516 8.12405 91.3311 7.94886 92.1502 7.94886C92.8936 7.94886 93.5446 8.10511 94.1033 8.41761C94.6621 8.72538 95.0953 9.18466 95.4031 9.79545C95.7108 10.4062 95.8647 11.1615 95.8647 12.0611V19H93.7411V12.3168C93.7411 11.526 93.5352 10.9081 93.1232 10.4631C92.7113 10.0133 92.1455 9.78835 91.4258 9.78835C90.9334 9.78835 90.4954 9.89489 90.1119 10.108C89.7331 10.321 89.4324 10.6335 89.2099 11.0455C88.9921 11.4527 88.8832 11.9451 88.8832 12.5227Z" fill="#11559E"/>
<path d="M36 26.9674C41.0608 39.6863 54.2081 40.0673 59.9608 29.4985C60.8248 27.9111 61.522 26.0767 62 24" stroke="#11559E" stroke-linecap="round" stroke-linejoin="round"/>
<path d="M36 26.8763C43.6796 35.0492 59.1688 32.9706 62 24" stroke="#11559E" stroke-linecap="round" stroke-linejoin="round"/>
</svg>
