<svg width="44" height="44" viewBox="0 0 44 44" fill="none" xmlns="http://www.w3.org/2000/svg">
<path fill-rule="evenodd" clip-rule="evenodd" d="M22 5.0415C12.6342 5.0415 5.04169 12.634 5.04169 21.9998C5.04169 31.3656 12.6342 38.9582 22 38.9582C31.3658 38.9582 38.9584 31.3656 38.9584 21.9998C38.9584 12.634 31.3658 5.0415 22 5.0415ZM2.29169 21.9998C2.29169 11.1152 11.1154 2.2915 22 2.2915C32.8847 2.2915 41.7084 11.1152 41.7084 21.9998C41.7084 32.8845 32.8847 41.7082 22 41.7082C11.1154 41.7082 2.29169 32.8845 2.29169 21.9998ZM18.2778 15.5276C18.8148 14.9906 19.6853 14.9906 20.2222 15.5276L25.7222 21.0276C26.2592 21.5646 26.2592 22.4351 25.7222 22.9721L20.2222 28.4721C19.6853 29.009 18.8148 29.009 18.2778 28.4721C17.7408 27.9351 17.7408 27.0646 18.2778 26.5276L22.8054 21.9998L18.2778 17.4721C17.7408 16.9351 17.7408 16.0645 18.2778 15.5276Z" fill="#203182"/>
</svg>
