<svg width="44" height="44" viewBox="0 0 44 44" fill="none" xmlns="http://www.w3.org/2000/svg">
<path fill-rule="evenodd" clip-rule="evenodd" d="M22 5.0415C12.6341 5.0415 5.04163 12.634 5.04163 21.9998C5.04163 31.3656 12.6341 38.9582 22 38.9582C31.3657 38.9582 38.9583 31.3656 38.9583 21.9998C38.9583 12.634 31.3657 5.0415 22 5.0415ZM2.29163 21.9998C2.29163 11.1152 11.1153 2.2915 22 2.2915C32.8846 2.2915 41.7083 11.1152 41.7083 21.9998C41.7083 32.8845 32.8846 41.7082 22 41.7082C11.1153 41.7082 2.29163 32.8845 2.29163 21.9998ZM25.7222 15.5276C26.2592 16.0645 26.2592 16.9351 25.7222 17.4721L21.1946 21.9998L25.7222 26.5276C26.2592 27.0646 26.2592 27.9351 25.7222 28.4721C25.1852 29.009 24.3147 29.009 23.7777 28.4721L18.2777 22.9721C17.7407 22.4351 17.7407 21.5646 18.2777 21.0276L23.7777 15.5276C24.3147 14.9906 25.1852 14.9906 25.7222 15.5276Z" fill="#203182"/>
</svg>
